<svg xmlns="http://www.w3.org/2000/svg" viewBox="0 0 1200 800" role="img" aria-labelledby="title desc">
  <title id="title">Axy Lusion media hosting placeholder</title>
  <desc id="desc">A branded placeholder shown while durable gallery media hosting is being migrated.</desc>
  <defs>
    <radialGradient id="glow" cx="50%" cy="38%" r="68%">
      <stop offset="0" stop-color="#f2c36b" stop-opacity="0.34"/>
      <stop offset="0.4" stop-color="#9b4f1b" stop-opacity="0.14"/>
      <stop offset="1" stop-color="#090909" stop-opacity="1"/>
    </radialGradient>
    <linearGradient id="panel" x1="0" x2="1" y1="0" y2="1">
      <stop offset="0" stop-color="#171717"/>
      <stop offset="0.55" stop-color="#0d0d0d"/>
      <stop offset="1" stop-color="#030303"/>
    </linearGradient>
    <filter id="softShadow" x="-20%" y="-20%" width="140%" height="140%">
      <feDropShadow dx="0" dy="26" stdDeviation="28" flood-color="#000" flood-opacity="0.55"/>
    </filter>
  </defs>
  <rect width="1200" height="800" fill="#050505"/>
  <rect width="1200" height="800" fill="url(#glow)"/>
  <g opacity="0.26" stroke="#f0b453" stroke-width="1">
    <path d="M0 120 C210 70 340 190 520 130 S870 80 1200 158" fill="none"/>
    <path d="M0 650 C250 570 402 736 620 654 S970 568 1200 690" fill="none"/>
    <path d="M130 0 C210 210 68 310 180 520 S260 692 235 800" fill="none"/>
    <path d="M970 0 C850 200 1030 326 930 520 S860 710 900 800" fill="none"/>
  </g>
  <g filter="url(#softShadow)">
    <rect x="210" y="138" width="780" height="524" rx="34" fill="url(#panel)" stroke="#6f471d" stroke-width="2"/>
    <rect x="250" y="178" width="700" height="322" rx="24" fill="#101010" stroke="#2d2419"/>
    <path d="M298 452 L448 302 L568 414 L646 338 L902 452" fill="none" stroke="#f0b453" stroke-width="18" stroke-linecap="round" stroke-linejoin="round" opacity="0.88"/>
    <circle cx="785" cy="265" r="50" fill="#f0b453" opacity="0.82"/>
    <text x="600" y="575" text-anchor="middle" fill="#f8ead0" font-family="Georgia, 'Times New Roman', serif" font-size="46" letter-spacing="3">AXY LUSION</text>
    <text x="600" y="622" text-anchor="middle" fill="#b9aa91" font-family="Arial, sans-serif" font-size="24" letter-spacing="1.5">MEDIA HOSTING MIGRATION</text>
  </g>
</svg>
